<?xml version="1.0" encoding="utf-8"?>
<!-- Generator: Adobe Illustrator 27.0.0, SVG Export Plug-In . SVG Version: 6.00 Build 0)  -->
<svg version="1.1" id="Layer_1" xmlns="http://www.w3.org/2000/svg" xmlns:xlink="http://www.w3.org/1999/xlink" x="0px" y="0px"
	 viewBox="0 0 782.76 233.19" style="enable-background:new 0 0 782.76 233.19;" xml:space="preserve">
<style type="text/css">
	.st0{fill:#F15A29;}
	.st1{fill:#00BAC2;}
	.st2{fill:#6D6E71;}
</style>
<path class="st0" d="M189.67,95.27c0,26.29-20.58,48.01-46.49,49.54c-2.1,0-4,0-6.1,0c-26.1-1.52-46.68-23.24-46.68-49.54
	c0-27.44,22.29-49.73,49.73-49.73C167.38,45.54,189.67,67.83,189.67,95.27z M166.24,95.27c0-14.48-11.81-26.1-26.1-26.1
	c-14.48,0-26.1,11.62-26.1,26.1s11.62,26.1,26.1,26.1C154.43,121.37,166.24,109.75,166.24,95.27z"/>
<path class="st1" d="M295.99,95.27c0,26.86-22.1,49.54-48.96,49.54c-11.81,0-19.81-4.38-26.67-14.1v14.1h-23.62V11.44h23.62v45.53
	c5.34-7.05,16.38-11.43,26.1-11.43C273.7,45.54,295.99,67.83,295.99,95.27z M272.56,95.27c0-14.48-11.81-26.1-26.1-26.1
	c-14.48,0-26.1,11.62-26.1,26.1s11.62,26.1,26.1,26.1C260.75,121.37,272.56,109.75,272.56,95.27z"/>
<path class="st1" d="M397.55,95.27c0,26.29-20.58,48.01-46.49,49.54c-2.1,0-4,0-6.1,0c-26.1-1.52-46.68-23.24-46.68-49.54
	c0-27.44,22.29-49.73,49.72-49.73C375.25,45.54,397.55,67.83,397.55,95.27z M374.11,95.27c0-14.48-11.81-26.1-26.1-26.1
	c-14.48,0-26.1,11.62-26.1,26.1s11.62,26.1,26.1,26.1C362.3,121.37,374.11,109.75,374.11,95.27z"/>
<path class="st1" d="M474.53,51.45L463.67,72.4c-3.05-1.33-6.29-2.29-9.91-2.29c-13.15,0-24.01,9.72-25.53,22.86v51.82h-23.62V46.68
	h23.62v11.05c6.29-6.29,16.2-11.05,25.53-11.05C461.19,46.68,468.24,48.4,474.53,51.45z"/>
<path class="st1" d="M573.6,93.74v51.06h-23.43V93.74c0-12.96-10.67-23.62-23.62-23.62c-13.15,0-24.01,9.91-25.53,22.86v51.82
	h-23.62V46.68h23.62v11.05c6.29-6.29,16.2-11.05,25.53-11.05C552.46,46.68,573.6,67.83,573.6,93.74z"/>
<path class="st1" d="M674.02,89.17c0.57,2.1-0.76,4.19-2.86,4.76l-66.3,18.67c2.1,2.48,4.57,4.57,7.43,6.29
	c3.81,2.1,10.48,3.43,16.96,3.43c4.38,0,8.96-0.76,12.38-2.28l7.24,22.29c-5.72,2.1-12.96,3.24-20.2,3.24
	c-9.34,0-18.67-1.72-25.15-4.76c-0.95-0.57-1.9-0.95-2.67-1.52c-0.95-0.38-1.72-0.95-2.67-1.52c-23.24-15.05-30.1-46.87-13.53-70.49
	C594,53.92,609.43,46.3,625.43,46.3c21.34,0,40.58,14.1,47.06,34.68L674.02,89.17z M643.34,77.36c-4.95-4.95-11.05-7.43-18.1-7.43
	c-12,0-22.48,8-25.34,19.62L643.34,77.36z"/>
<path class="st1" d="M771.76,95.27c0,26.29-20.58,48.01-46.49,49.54c-2.1,0-4,0-6.1,0c-26.1-1.52-46.68-23.24-46.68-49.54
	c0-27.44,22.29-49.73,49.73-49.73C749.47,45.54,771.76,67.83,771.76,95.27z M748.33,95.27c0-14.48-11.81-26.1-26.1-26.1
	c-14.48,0-26.1,11.62-26.1,26.1s11.62,26.1,26.1,26.1C736.52,121.37,748.33,109.75,748.33,95.27z"/>
<g>
	<path class="st0" d="M183.79,172.78c-3.19-12.85-15.32-21.47-28.56-21.47l-88.45,0c-7.07,0-13.94,0.2-20.81,0.2
		c-2.42-0.4-3.64-2.43-2.63-4.65c0.4-0.61,0.61-1.01,0.81-1.62c0.04-0.06,0.1-0.1,0.15-0.15c8.24,2.81,17.38,3.68,26.97,1.68
		c21.29-4.44,37.81-22.11,40.48-43.69c4.22-34.11-25.07-62.67-59.37-57.21c-21.35,3.4-38.49,20.37-42.12,41.69
		c-2.89,16.93,2.59,32.6,12.89,43.75l-2.23,4.63c-4.04,8.28-3.64,18.18,0.81,26.27c4.85,8.89,13.74,14.14,23.84,14.14h110.26
		c2.22,0,3.84,1.82,3.84,3.84c0,1.16,0.12,1.03-3.09,5.45c-1.24,1.7-0.67,0.53-0.74,2.55c-0.48,13.31,16.72,18.94,24.01,8.06
		C184.16,189.8,185.95,181.5,183.79,172.78z M60.91,70.08c14.91,0,27,12.09,27,27s-12.09,27-27,27s-27-12.09-27-27
		S46,70.08,60.91,70.08z"/>
	<path class="st0" d="M155.98,186.36c-11.35,14.35-69.9,24.07-119.53,0c-7.15-4.22-12.67,9.76-8.4,15.96
		c31.18,30.62,127.08,28.06,151.45-5.74C181.13,186.36,167.33,172,155.98,186.36z"/>
</g>
<g>
	<path class="st2" d="M209.28,169.22h4.33l-8.96,9.93l9.38,11.26h-4.39l-8.23-9.9v9.9h-3.66v-21.19h3.66v8.84L209.28,169.22z"/>
	<path class="st2" d="M223.01,180.17l-1.33-2.36c0.65-0.38,1.45-0.76,2.41-1.12c0.96-0.36,2.06-0.54,3.31-0.54
		c1.72,0,3.11,0.37,4.19,1.12c1.08,0.75,1.62,1.82,1.62,3.21v9.93h-3.21v-2c-0.4,0.75-1.03,1.32-1.88,1.71
		c-0.85,0.39-1.8,0.59-2.84,0.59c-1.41,0-2.58-0.36-3.5-1.09c-0.92-0.73-1.38-1.78-1.38-3.15c0-1.45,0.54-2.59,1.62-3.41
		c1.08-0.82,2.53-1.22,4.34-1.22c0.77,0,1.46,0.1,2.07,0.29c0.62,0.19,1.14,0.41,1.56,0.65v-1.94c0-0.65-0.27-1.15-0.8-1.5
		c-0.53-0.35-1.19-0.53-1.95-0.53c-0.99,0-1.86,0.17-2.6,0.51C223.9,179.67,223.36,179.95,223.01,180.17z M223.71,186.29
		c0,0.65,0.25,1.13,0.74,1.45c0.49,0.32,1.1,0.49,1.83,0.49c1.07,0,1.96-0.25,2.66-0.74c0.71-0.5,1.06-1.36,1.06-2.59v-0.27
		c-0.91-0.46-1.96-0.7-3.15-0.7c-1.05,0-1.84,0.21-2.36,0.64C223.97,184.99,223.71,185.56,223.71,186.29z"/>
	<path class="st2" d="M242.47,166.79h3.3v23.61h-3.3V166.79z"/>
	<path class="st2" d="M255.24,170.94c0-0.56,0.2-1.04,0.61-1.42c0.4-0.38,0.89-0.58,1.45-0.58c0.58,0,1.08,0.19,1.48,0.58
		c0.4,0.38,0.61,0.86,0.61,1.42c0,0.57-0.2,1.04-0.61,1.42c-0.4,0.38-0.9,0.57-1.48,0.57c-0.56,0-1.05-0.19-1.45-0.57
		C255.44,171.98,255.24,171.51,255.24,170.94z M255.7,176.48h3.21v13.92h-3.21V176.48z"/>
	<path class="st2" d="M288.81,181.57v8.84h-3.3v-8.48c0-1.01-0.18-1.78-0.53-2.32s-0.95-0.8-1.8-0.8c-0.89,0-1.57,0.29-2.04,0.86
		c-0.47,0.57-0.71,1.33-0.71,2.25v8.48h-3.3v-8.48c0-1.01-0.17-1.78-0.51-2.32s-0.94-0.8-1.79-0.8c-0.89,0-1.57,0.29-2.04,0.86
		c-0.47,0.57-0.71,1.33-0.71,2.25v8.48h-3.21v-13.92h3.21v2.03c0.38-0.71,0.9-1.27,1.56-1.7c0.66-0.42,1.44-0.64,2.35-0.64
		c2.04,0,3.37,0.82,4,2.45c0.46-0.77,1.08-1.37,1.85-1.8c0.77-0.43,1.61-0.65,2.54-0.65c1.51,0,2.63,0.46,3.36,1.38
		C288.44,178.47,288.81,179.81,288.81,181.57z"/>
	<path class="st2" d="M299.76,180.17l-1.33-2.36c0.65-0.38,1.45-0.76,2.41-1.12c0.96-0.36,2.06-0.54,3.31-0.54
		c1.72,0,3.11,0.37,4.19,1.12c1.08,0.75,1.62,1.82,1.62,3.21v9.93h-3.21v-2c-0.4,0.75-1.03,1.32-1.88,1.71
		c-0.85,0.39-1.8,0.59-2.85,0.59c-1.41,0-2.58-0.36-3.5-1.09c-0.92-0.73-1.38-1.78-1.38-3.15c0-1.45,0.54-2.59,1.62-3.41
		c1.08-0.82,2.53-1.22,4.34-1.22c0.77,0,1.46,0.1,2.07,0.29c0.62,0.19,1.14,0.41,1.56,0.65v-1.94c0-0.65-0.27-1.15-0.8-1.5
		c-0.53-0.35-1.19-0.53-1.95-0.53c-0.99,0-1.86,0.17-2.6,0.51C300.65,179.67,300.1,179.95,299.76,180.17z M300.45,186.29
		c0,0.65,0.25,1.13,0.74,1.45c0.49,0.32,1.1,0.49,1.83,0.49c1.07,0,1.96-0.25,2.66-0.74c0.71-0.5,1.06-1.36,1.06-2.59v-0.27
		c-0.91-0.46-1.96-0.7-3.15-0.7c-1.05,0-1.84,0.21-2.36,0.64C300.72,184.99,300.45,185.56,300.45,186.29z"/>
	<path class="st2" d="M328.18,181.93c0-1.01-0.21-1.78-0.62-2.32c-0.41-0.53-1.06-0.8-1.95-0.8c-0.93,0-1.67,0.29-2.24,0.86
		c-0.56,0.57-0.85,1.33-0.85,2.25v8.48h-3.3v-13.92h3.3v2.15c0.4-0.77,0.96-1.37,1.68-1.8c0.72-0.43,1.55-0.65,2.5-0.65
		c1.55,0,2.75,0.46,3.59,1.38c0.84,0.92,1.26,2.26,1.26,4.01v8.84h-3.36V181.93z"/>
	<path class="st2" d="M341.55,171.64h3.24v4.84h2.33v2.88h-2.33v11.05h-3.24v-11.05h-2.33v-2.88h2.33V171.64z"/>
	<path class="st2" d="M356.17,180.17l-1.33-2.36c0.65-0.38,1.45-0.76,2.41-1.12c0.96-0.36,2.06-0.54,3.31-0.54
		c1.72,0,3.11,0.37,4.19,1.12c1.08,0.75,1.62,1.82,1.62,3.21v9.93h-3.21v-2c-0.4,0.75-1.03,1.32-1.88,1.71
		c-0.85,0.39-1.8,0.59-2.84,0.59c-1.41,0-2.58-0.36-3.5-1.09c-0.92-0.73-1.38-1.78-1.38-3.15c0-1.45,0.54-2.59,1.62-3.41
		c1.08-0.82,2.53-1.22,4.34-1.22c0.77,0,1.46,0.1,2.07,0.29c0.62,0.19,1.14,0.41,1.56,0.65v-1.94c0-0.65-0.27-1.15-0.8-1.5
		c-0.53-0.35-1.19-0.53-1.95-0.53c-0.99,0-1.86,0.17-2.6,0.51C357.06,179.67,356.51,179.95,356.17,180.17z M356.86,186.29
		c0,0.65,0.25,1.13,0.74,1.45c0.49,0.32,1.1,0.49,1.83,0.49c1.07,0,1.96-0.25,2.66-0.74c0.71-0.5,1.06-1.36,1.06-2.59v-0.27
		c-0.91-0.46-1.96-0.7-3.15-0.7c-1.05,0-1.84,0.21-2.36,0.64C357.13,184.99,356.86,185.56,356.86,186.29z"/>
	<path class="st2" d="M384.59,181.93c0-1.01-0.21-1.78-0.62-2.32c-0.41-0.53-1.06-0.8-1.95-0.8c-0.93,0-1.68,0.29-2.24,0.86
		c-0.56,0.57-0.85,1.33-0.85,2.25v8.48h-3.3v-13.92h3.3v2.15c0.4-0.77,0.96-1.37,1.68-1.8c0.72-0.43,1.55-0.65,2.5-0.65
		c1.55,0,2.75,0.46,3.59,1.38c0.84,0.92,1.26,2.26,1.26,4.01v8.84h-3.36V181.93z"/>
	<path class="st2" d="M410.25,172.52v-3.3h14.77v3.3h-5.6v17.89h-3.6v-17.89H410.25z"/>
	<path class="st2" d="M428.68,183.44c0-1.43,0.33-2.69,0.98-3.78c0.66-1.09,1.55-1.94,2.69-2.56c1.14-0.62,2.42-0.92,3.83-0.92
		c1.43,0,2.71,0.31,3.84,0.92c1.13,0.62,2.02,1.47,2.68,2.56c0.66,1.09,0.98,2.35,0.98,3.78c0,1.43-0.33,2.69-0.98,3.78
		c-0.66,1.09-1.55,1.94-2.68,2.56c-1.13,0.62-2.41,0.92-3.84,0.92c-1.41,0-2.69-0.31-3.83-0.92c-1.14-0.62-2.04-1.47-2.69-2.56
		C429,186.14,428.68,184.88,428.68,183.44z M432.04,183.44c0,1.29,0.4,2.35,1.2,3.16c0.8,0.82,1.78,1.23,2.95,1.23
		c1.19,0,2.18-0.41,2.97-1.23c0.79-0.82,1.18-1.87,1.18-3.16c0-1.31-0.39-2.37-1.18-3.18c-0.79-0.81-1.78-1.21-2.97-1.21
		c-1.17,0-2.15,0.4-2.95,1.21C432.43,181.07,432.04,182.13,432.04,183.44z"/>
	<path class="st2" d="M455.58,184.96c0,2.08,0.87,3.12,2.6,3.12c0.93,0,1.68-0.29,2.24-0.86c0.56-0.57,0.85-1.33,0.85-2.25v-8.48
		h3.27v13.92h-3.27v-2.18c-0.42,0.75-0.99,1.35-1.71,1.8c-0.72,0.45-1.55,0.68-2.5,0.68c-1.53,0-2.72-0.46-3.57-1.38
		c-0.85-0.92-1.27-2.26-1.27-4.01v-8.84h3.36V184.96z"/>
	<path class="st2" d="M481.55,179.99c-0.3-0.24-0.59-0.43-0.85-0.56c-0.26-0.13-0.6-0.2-1-0.2c-0.81,0-1.39,0.3-1.75,0.91
		c-0.36,0.61-0.55,1.41-0.55,2.42v7.84h-3.24v-13.92h3.24v1.7c0.4-0.63,0.89-1.11,1.45-1.47s1.14-0.53,1.73-0.53
		c0.5,0,0.98,0.08,1.42,0.24c0.44,0.16,0.83,0.42,1.15,0.79L481.55,179.99z"/>
	<path class="st2" d="M490.68,170.94c0-0.56,0.2-1.04,0.61-1.42c0.4-0.38,0.89-0.58,1.45-0.58c0.58,0,1.08,0.19,1.48,0.58
		c0.4,0.38,0.61,0.86,0.61,1.42c0,0.57-0.2,1.04-0.61,1.42c-0.4,0.38-0.9,0.57-1.48,0.57c-0.57,0-1.05-0.19-1.45-0.57
		C490.89,171.98,490.68,171.51,490.68,170.94z M491.14,176.48h3.21v13.92h-3.21V176.48z"/>
	<path class="st2" d="M504.82,185.38c0.67,0.79,1.38,1.43,2.13,1.92c0.76,0.5,1.44,0.74,2.04,0.74c0.58,0,1.04-0.12,1.38-0.35
		s0.5-0.58,0.5-1.04c0-0.61-0.31-1.08-0.92-1.42c-0.62-0.34-1.33-0.67-2.13-0.97c-0.65-0.26-1.27-0.55-1.88-0.88
		c-0.61-0.32-1.1-0.75-1.5-1.29c-0.39-0.53-0.59-1.24-0.59-2.1c0-0.81,0.22-1.49,0.67-2.06c0.44-0.57,1.03-1,1.75-1.3
		c0.73-0.3,1.5-0.45,2.33-0.45c1.13,0,2.17,0.24,3.13,0.71c0.96,0.47,1.7,1.07,2.23,1.77l-1.82,1.88c-0.46-0.51-1-0.92-1.62-1.24
		c-0.62-0.32-1.21-0.48-1.77-0.48s-1.01,0.1-1.35,0.29c-0.33,0.19-0.5,0.5-0.5,0.92c0,0.38,0.17,0.7,0.52,0.94
		c0.34,0.24,0.78,0.45,1.32,0.64c0.54,0.18,1.06,0.38,1.59,0.61c0.67,0.26,1.29,0.57,1.88,0.92c0.58,0.35,1.06,0.79,1.42,1.32
		c0.36,0.53,0.54,1.2,0.54,2.03c0,1.47-0.47,2.57-1.41,3.29c-0.94,0.72-2.14,1.07-3.62,1.07c-1.35,0-2.57-0.34-3.65-1.03
		c-1.08-0.69-1.94-1.54-2.59-2.57L504.82,185.38z"/>
	<path class="st2" d="M542.47,181.57v8.84h-3.3v-8.48c0-1.01-0.18-1.78-0.53-2.32s-0.95-0.8-1.8-0.8c-0.89,0-1.57,0.29-2.04,0.86
		c-0.47,0.57-0.71,1.33-0.71,2.25v8.48h-3.3v-8.48c0-1.01-0.17-1.78-0.51-2.32c-0.34-0.53-0.94-0.8-1.79-0.8
		c-0.89,0-1.57,0.29-2.04,0.86c-0.47,0.57-0.71,1.33-0.71,2.25v8.48h-3.21v-13.92h3.21v2.03c0.38-0.71,0.9-1.27,1.56-1.7
		c0.66-0.42,1.44-0.64,2.35-0.64c2.04,0,3.37,0.82,3.99,2.45c0.46-0.77,1.08-1.37,1.85-1.8c0.77-0.43,1.61-0.65,2.54-0.65
		c1.51,0,2.63,0.46,3.36,1.38S542.47,179.81,542.47,181.57z"/>
	<path class="st2" d="M566.85,169.22h3.63v21.19h-3.63V169.22z"/>
	<path class="st2" d="M589.31,181.93c0-1.01-0.21-1.78-0.62-2.32s-1.06-0.8-1.95-0.8c-0.93,0-1.68,0.29-2.24,0.86
		c-0.57,0.57-0.85,1.33-0.85,2.25v8.48h-3.3v-13.92h3.3v2.15c0.4-0.77,0.96-1.37,1.68-1.8c0.72-0.43,1.55-0.65,2.5-0.65
		c1.55,0,2.75,0.46,3.59,1.38c0.84,0.92,1.26,2.26,1.26,4.01v8.84h-3.36V181.93z"/>
	<path class="st2" d="M608.8,170.31c-0.2-0.32-0.43-0.53-0.68-0.64c-0.25-0.1-0.51-0.15-0.77-0.15c-0.44,0-0.8,0.19-1.06,0.56
		c-0.26,0.37-0.39,1-0.39,1.89v4.51h3.24v2.88h-3.24v11.05h-3.24v-11.05h-1.51v-2.88h1.51v-5.15c0-1.61,0.39-2.83,1.17-3.66
		c0.78-0.83,1.89-1.24,3.34-1.24c0.81,0,1.47,0.15,1.98,0.44c0.51,0.29,0.9,0.59,1.17,0.89L608.8,170.31z"/>
	<path class="st2" d="M616.03,183.44c0-1.43,0.33-2.69,0.98-3.78c0.66-1.09,1.55-1.94,2.69-2.56c1.14-0.62,2.42-0.92,3.83-0.92
		c1.43,0,2.71,0.31,3.84,0.92c1.13,0.62,2.02,1.47,2.68,2.56c0.66,1.09,0.98,2.35,0.98,3.78c0,1.43-0.33,2.69-0.98,3.78
		c-0.66,1.09-1.55,1.94-2.68,2.56c-1.13,0.62-2.41,0.92-3.84,0.92c-1.41,0-2.69-0.31-3.83-0.92c-1.14-0.62-2.04-1.47-2.69-2.56
		C616.36,186.14,616.03,184.88,616.03,183.44z M619.39,183.44c0,1.29,0.4,2.35,1.2,3.16c0.8,0.82,1.78,1.23,2.95,1.23
		c1.19,0,2.18-0.41,2.97-1.23c0.79-0.82,1.18-1.87,1.18-3.16c0-1.31-0.39-2.37-1.18-3.18c-0.79-0.81-1.78-1.21-2.97-1.21
		c-1.17,0-2.15,0.4-2.95,1.21C619.79,181.07,619.39,182.13,619.39,183.44z"/>
	<path class="st2" d="M646.96,179.99c-0.3-0.24-0.59-0.43-0.85-0.56c-0.26-0.13-0.6-0.2-1-0.2c-0.81,0-1.39,0.3-1.75,0.91
		s-0.55,1.41-0.55,2.42v7.84h-3.24v-13.92h3.24v1.7c0.4-0.63,0.89-1.11,1.45-1.47s1.14-0.53,1.73-0.53c0.5,0,0.98,0.08,1.42,0.24
		c0.44,0.16,0.83,0.42,1.15,0.79L646.96,179.99z"/>
	<path class="st2" d="M676.17,181.57v8.84h-3.3v-8.48c0-1.01-0.18-1.78-0.53-2.32s-0.95-0.8-1.8-0.8c-0.89,0-1.57,0.29-2.04,0.86
		c-0.47,0.57-0.71,1.33-0.71,2.25v8.48h-3.3v-8.48c0-1.01-0.17-1.78-0.51-2.32c-0.34-0.53-0.94-0.8-1.79-0.8
		c-0.89,0-1.57,0.29-2.04,0.86c-0.47,0.57-0.71,1.33-0.71,2.25v8.48h-3.21v-13.92h3.21v2.03c0.38-0.71,0.9-1.27,1.56-1.7
		c0.66-0.42,1.44-0.64,2.35-0.64c2.04,0,3.37,0.82,4,2.45c0.46-0.77,1.08-1.37,1.85-1.8c0.77-0.43,1.61-0.65,2.54-0.65
		c1.51,0,2.63,0.46,3.36,1.38S676.17,179.81,676.17,181.57z"/>
	<path class="st2" d="M687.12,180.17l-1.33-2.36c0.65-0.38,1.45-0.76,2.41-1.12c0.96-0.36,2.06-0.54,3.32-0.54
		c1.71,0,3.11,0.37,4.19,1.12c1.08,0.75,1.62,1.82,1.62,3.21v9.93h-3.21v-2c-0.4,0.75-1.03,1.32-1.88,1.71
		c-0.85,0.39-1.8,0.59-2.84,0.59c-1.41,0-2.58-0.36-3.5-1.09c-0.92-0.73-1.38-1.78-1.38-3.15c0-1.45,0.54-2.59,1.62-3.41
		c1.08-0.82,2.53-1.22,4.34-1.22c0.77,0,1.46,0.1,2.07,0.29c0.62,0.19,1.14,0.41,1.56,0.65v-1.94c0-0.65-0.27-1.15-0.8-1.5
		c-0.54-0.35-1.19-0.53-1.95-0.53c-0.99,0-1.86,0.17-2.6,0.51C688.01,179.67,687.46,179.95,687.12,180.17z M687.81,186.29
		c0,0.65,0.25,1.13,0.74,1.45c0.5,0.32,1.1,0.49,1.83,0.49c1.07,0,1.96-0.25,2.66-0.74c0.71-0.5,1.06-1.36,1.06-2.59v-0.27
		c-0.91-0.46-1.96-0.7-3.15-0.7c-1.05,0-1.84,0.21-2.36,0.64C688.08,184.99,687.81,185.56,687.81,186.29z"/>
	<path class="st2" d="M706.97,171.64h3.24v4.84h2.33v2.88h-2.33v11.05h-3.24v-11.05h-2.33v-2.88h2.33V171.64z"/>
	<path class="st2" d="M720.1,170.94c0-0.56,0.2-1.04,0.61-1.42c0.4-0.38,0.89-0.58,1.45-0.58c0.58,0,1.08,0.19,1.48,0.58
		c0.4,0.38,0.61,0.86,0.61,1.42c0,0.57-0.2,1.04-0.61,1.42c-0.4,0.38-0.9,0.57-1.48,0.57c-0.57,0-1.05-0.19-1.45-0.57
		C720.31,171.98,720.1,171.51,720.1,170.94z M720.56,176.48h3.21v13.92h-3.21V176.48z"/>
	<path class="st2" d="M732.66,183.44c0-1.43,0.33-2.69,0.98-3.78c0.66-1.09,1.55-1.94,2.69-2.56c1.14-0.62,2.42-0.92,3.83-0.92
		c1.43,0,2.71,0.31,3.84,0.92c1.13,0.62,2.02,1.47,2.68,2.56c0.66,1.09,0.98,2.35,0.98,3.78c0,1.43-0.33,2.69-0.98,3.78
		c-0.66,1.09-1.55,1.94-2.68,2.56c-1.13,0.62-2.41,0.92-3.84,0.92c-1.41,0-2.69-0.31-3.83-0.92c-1.14-0.62-2.04-1.47-2.69-2.56
		C732.99,186.14,732.66,184.88,732.66,183.44z M736.02,183.44c0,1.29,0.4,2.35,1.2,3.16c0.8,0.82,1.78,1.23,2.95,1.23
		c1.19,0,2.18-0.41,2.97-1.23c0.79-0.82,1.18-1.87,1.18-3.16c0-1.31-0.39-2.37-1.18-3.18c-0.79-0.81-1.78-1.21-2.97-1.21
		c-1.17,0-2.15,0.4-2.95,1.21C736.42,181.07,736.02,182.13,736.02,183.44z"/>
	<path class="st2" d="M765.17,181.93c0-1.01-0.21-1.78-0.62-2.32s-1.06-0.8-1.95-0.8c-0.93,0-1.68,0.29-2.24,0.86
		c-0.57,0.57-0.85,1.33-0.85,2.25v8.48h-3.3v-13.92h3.3v2.15c0.4-0.77,0.96-1.37,1.68-1.8c0.72-0.43,1.55-0.65,2.5-0.65
		c1.55,0,2.75,0.46,3.59,1.38c0.84,0.92,1.26,2.26,1.26,4.01v8.84h-3.36V181.93z"/>
</g>
</svg>
